<svg width="73" height="18" viewBox="0 0 73 18" fill="none" xmlns="http://www.w3.org/2000/svg">
<path fill-rule="evenodd" clip-rule="evenodd" d="M9.41229 0C11.8151 0 14.0322 1.19607 13.7289 4.17696C13.3612 7.71962 11.293 9.67989 8.02979 9.68832H5.17839C4.76842 9.68832 4.56987 9.99535 4.46325 10.6246L3.91172 13.8417C3.82899 14.3275 3.5569 14.5671 3.15612 14.5671H0.503276C0.0804378 14.5671 -0.0666356 14.3191 0.0271241 13.7641L2.21669 0.870482C2.32516 0.236178 2.58438 0 3.05685 0H9.40677H9.41229ZM5.09199 6.90312H7.25214C8.60338 6.85588 9.50053 5.99721 9.59061 4.44856C9.64576 3.49205 8.94165 2.80713 7.82205 2.81219L5.78875 2.82063L5.09199 6.90312ZM20.9411 13.5802C21.1837 13.3777 21.4301 13.2732 21.3951 13.5228L21.3087 14.12C21.2646 14.4321 21.3988 14.5974 21.715 14.5974H24.0719C24.469 14.5974 24.662 14.4507 24.7595 13.8872L26.2118 5.52317C26.2854 5.10311 26.1732 4.8973 25.8258 4.8973H23.2336C23.0001 4.8973 22.8861 5.01708 22.8254 5.34435L22.7298 5.85888C22.6802 6.12711 22.546 6.17435 22.421 5.90443C21.9816 4.9496 20.8602 4.52111 19.2957 4.55485C15.6611 4.62401 13.2105 7.15617 12.9476 10.4019C12.7454 12.9121 14.7051 14.8842 17.2899 14.8842C19.1651 14.8842 20.0035 14.3781 20.9484 13.5852L20.9411 13.5802ZM18.9666 12.293C17.4021 12.293 16.3119 11.1476 16.538 9.744C16.7641 8.34043 18.2275 7.19497 19.792 7.19497C21.3565 7.19497 22.4467 8.34043 22.2206 9.744C21.9945 11.1476 20.5329 12.293 18.9666 12.293ZM30.8244 4.87031H28.4345C27.9418 4.87031 27.7414 5.2077 27.8977 5.6227L30.8649 13.5954L27.9546 17.3894C27.7101 17.7065 27.8995 17.995 28.2433 17.995H30.9292C31.0858 18.0116 31.2442 17.9866 31.3857 17.9229C31.5271 17.8592 31.6456 17.7595 31.7271 17.6357L40.853 5.62439C41.1343 5.25494 41.002 4.86694 40.5405 4.86694H37.998C37.5623 4.86694 37.3876 5.02551 37.1376 5.35785L33.332 10.4188L31.6315 5.34604C31.5322 5.03901 31.284 4.87031 30.8263 4.87031H30.8244Z" fill="#113984"/>
<path fill-rule="evenodd" clip-rule="evenodd" d="M50.2139 0.0036296C52.5665 0.0036296 54.7373 1.28907 54.4403 4.4927C54.0803 8.30006 52.0553 10.4068 48.8603 10.4159H46.0702C45.6688 10.4159 45.4744 10.7458 45.37 11.4221L44.83 14.8795C44.749 15.4017 44.4826 15.6592 44.0902 15.6592H41.4928C41.0788 15.6592 40.9348 15.3926 41.0266 14.7961L43.174 0.935525C43.2802 0.253825 43.534 0 43.9966 0H50.2139V0.0036296ZM45.9838 7.42255H48.0988C49.4219 7.37179 50.3003 6.44895 50.3885 4.78459C50.4425 3.7566 49.7531 3.02051 48.6568 3.02595L46.666 3.03502L45.9838 7.42255V7.42255ZM61.5018 14.5985C61.7394 14.381 61.9806 14.2686 61.9464 14.5369L61.8618 15.1787C61.8186 15.5141 61.95 15.6918 62.2596 15.6918H64.5672C64.956 15.6918 65.145 15.5341 65.2404 14.9285L66.6624 5.93949C66.7344 5.48805 66.6247 5.26686 66.2844 5.26686H63.75C63.5214 5.26686 63.4098 5.39558 63.3504 5.74731L63.2568 6.30028C63.2082 6.58856 63.0768 6.63932 62.9544 6.34924C62.5242 5.32306 61.4262 4.86255 59.8944 4.89881C56.3357 4.97315 53.9363 7.69451 53.6789 11.1828C53.4809 13.8806 55.3997 16 57.9305 16C59.7666 16 60.5874 15.4561 61.5126 14.604L61.5018 14.5985ZM59.5704 13.2152C58.0386 13.2152 56.9711 11.9841 57.1925 10.4757C57.4139 8.96726 58.8468 7.73621 60.3786 7.73621C61.9104 7.73621 62.9778 8.96726 62.7564 10.4757C62.535 11.9841 61.1022 13.2152 59.5704 13.2152ZM70.2139 15.7063H67.5499C67.5035 15.7084 67.4573 15.7001 67.4145 15.6821C67.3717 15.6642 67.3333 15.6369 67.3022 15.6022C67.2711 15.5676 67.248 15.5265 67.2344 15.4818C67.2209 15.4371 67.2174 15.3899 67.2241 15.3437L69.5641 0.411562C69.5864 0.309653 69.6423 0.218356 69.7227 0.152521C69.8031 0.0866852 69.9033 0.050184 70.0069 0.0489554H72.6709C72.7173 0.0468676 72.7635 0.0551119 72.8063 0.0731011C72.8491 0.0910903 72.8874 0.118379 72.9186 0.153019C72.9497 0.187659 72.9728 0.228795 72.9863 0.273487C72.9999 0.31818 73.0034 0.365328 72.9967 0.411562L70.6567 15.3437C70.6351 15.4463 70.5795 15.5384 70.499 15.6049C70.4185 15.6715 70.318 15.7085 70.2139 15.7099V15.7063Z" fill="#009EE3"/>
</svg>
